<svg xmlns="http://www.w3.org/2000/svg" viewBox="0 0 512 512">
  <rect width="512" height="512" rx="120" fill="#10172a"/>
  <path d="M86 236 256 98l170 138v164c0 17-13 30-30 30H116c-17 0-30-13-30-30V236Z" fill="#f3a64d"/>
  <path d="M142 224h228v178H142z" fill="#f6efe6" opacity=".12"/>
  <path d="M226 286h60c17 0 30 13 30 30v114h-120V316c0-17 13-30 30-30Z" fill="#10172a"/>
  <rect x="168" y="258" width="44" height="44" rx="10" fill="#10172a"/>
  <rect x="300" y="258" width="44" height="44" rx="10" fill="#10172a"/>
  <path d="M347 146c18 0 33 15 33 33s-15 33-33 33h-21v-66h21Z" fill="#91e2c3"/>
  <circle cx="358" cy="179" r="9" fill="#10172a"/>
</svg>
